<svg width="45" height="40" viewBox="0 0 45 40" fill="none" xmlns="http://www.w3.org/2000/svg">
<path d="M1.48809 0C0.666385 0 0 0.666358 0 1.48809C0 2.30979 0.666013 2.97618 1.48809 2.97618H6.4325C8.89523 9.07583 11.3208 15.1866 13.7638 21.2972L11.5163 26.7066C11.3281 27.1578 11.3811 27.7012 11.6526 28.1074C11.9246 28.5136 12.4069 28.77 12.8957 28.7679H37.6958C38.4818 28.779 39.2049 28.0663 39.2049 27.2798C39.2049 26.4938 38.4818 25.7807 37.6958 25.7917H15.1277L16.4141 22.7229L40.3 20.8166C40.9252 20.7675 41.4912 20.2803 41.6331 19.6697L44.6093 6.77368C44.8041 5.90492 44.0426 4.95725 43.1524 4.96H10.4314L8.81951 0.93C8.59877 0.384382 8.02859 0 7.4401 0H1.48809ZM11.6251 7.93618H41.2762L38.9667 17.9492L16.3527 19.7473L11.6251 7.93618ZM17.8563 29.7602C15.1345 29.7602 12.8963 31.9984 12.8963 34.7202C12.8963 37.442 15.1345 39.6802 17.8563 39.6802C20.5781 39.6802 22.8163 37.442 22.8163 34.7202C22.8163 31.9984 20.5781 29.7602 17.8563 29.7602ZM32.7363 29.7602C30.0145 29.7602 27.7763 31.9984 27.7763 34.7202C27.7763 37.442 30.0145 39.6802 32.7363 39.6802C35.4581 39.6802 37.6963 37.442 37.6963 34.7202C37.6963 31.9984 35.4581 29.7602 32.7363 29.7602ZM17.8563 32.7364C18.9696 32.7364 19.8401 33.6068 19.8401 34.7202C19.8401 35.8335 18.9696 36.704 17.8563 36.704C16.7429 36.704 15.8724 35.8332 15.8724 34.7202C15.8724 33.6068 16.7433 32.7364 17.8563 32.7364ZM32.7363 32.7364C33.8496 32.7364 34.7201 33.6072 34.7201 34.7202C34.7201 35.8335 33.8493 36.704 32.7363 36.704C31.6229 36.704 30.7524 35.8335 30.7524 34.7202C30.7524 33.6068 31.6229 32.7364 32.7363 32.7364Z" fill="#237D43"/>
</svg>
